<svg viewBox="-1 0 512 512.00003" xmlns="http://www.w3.org/2000/svg"><path d="m510.433594 256.78125c0 24.503906-3.449219 48.203125-9.894532 70.628906-8.335937 29-21.679687 55.886719-39.023437 79.660156-28.90625 39.605469-68.929687 70.574219-115.484375 88.304688-28.21875 10.738281-58.824219 16.625-90.8125 16.625-31.992188 0-62.597656-5.886719-90.816406-16.625-46.554688-17.730469-86.578125-48.699219-115.484375-88.304688-17.34375-23.773437-30.6875-50.660156-39.023438-79.660156-6.445312-22.425781-9.894531-46.125-9.894531-70.628906 0-24.5 3.449219-48.1875 9.894531-70.617188 15.804688-54.988281 49.597657-102.375 94.597657-135.355468 42.242187-30.960938 94.335937-49.242188 150.726562-49.242188 56.386719 0 108.480469 18.28125 150.722656 49.242188 45 32.980468 78.792969 80.367187 94.597656 135.355468 6.445313 22.429688 9.894532 46.117188 9.894532 70.617188zm0 0" fill="#d6d6d6"/><path d="m346.03125 495.375c-28.21875 10.738281-58.824219 16.625-90.8125 16.625-31.992188 0-62.597656-5.886719-90.816406-16.625l20.875-60.460938 16.8125-48.679687h106.253906l16.8125 48.679687zm0 0" fill="#583377"/><path d="m325.15625 434.914062-151.679688 34.164063 28.613282-82.84375h106.253906zm0 0" fill="#442463"/><path d="m500.539062 81.445312v245.964844c-8.335937 29-21.679687 55.886719-39.023437 79.660156h-412.597656c-17.34375-23.773437-30.6875-50.660156-39.023438-79.660156v-245.964844c0-16.917968 13.710938-30.636718 30.628907-30.636718h429.378906c16.917968 0 30.636718 13.71875 30.636718 30.636718zm0 0" fill="#583377"/><path d="m40.523438 343.949219c-5.402344 0-9.796876-4.398438-9.796876-9.800781v-252.710938c0-5.402344 4.394532-9.796875 9.796876-9.796875h429.378906c5.402344 0 9.796875 4.394531 9.796875 9.796875v252.710938c0 5.402343-4.394531 9.800781-9.796875 9.800781zm0 0" fill="#fff"/><path d="m438.070312 83.871094v215.433594c0 2.917968-.4375 5.730468-1.25 8.375-3.574218 11.574218-14.363281 19.980468-27.117187 19.980468h-336.542969c-.519531 0-1.03125-.011718-1.539062-.042968-3.699219-.199219-7.21875-1.113282-10.417969-2.605469-9.6875-4.5-16.394531-14.320313-16.394531-25.707031v-215.433594c0-17.273438 14-31.261719 31.257812-31.261719h330.742188c17.261718 0 31.261718 13.988281 31.261718 31.261719zm0 0" fill="#ff4f9b"/><path d="m438.070312 83.871094v215.433594c0 2.917968-.4375 5.730468-1.25 8.375h-327.03125c-15.65625 0-28.355468-12.699219-28.355468-28.355469v-215.445313c0-3.980468.738281-7.78125 2.105468-11.269531h323.269532c17.261718 0 31.261718 13.988281 31.261718 31.261719zm0 0" fill="#e8388c"/><path d="m448.488281 147.476562v151.828126c0 15.667968-12.699219 28.355468-28.367187 28.355468h-346.960938c-.519531 0-1.03125-.011718-1.539062-.042968v-152.628907c0-13.699219 8.800781-25.34375 21.074218-29.554687 3.1875-1.113282 6.613282-1.707032 10.1875-1.707032h330.730469c1.519531 0 3 .101563 4.457031.3125 3.71875.53125 7.230469 1.71875 10.417969 3.4375zm0 0" fill="#e8388c"/><path d="m482.0625 139.609375v215.4375c0 15.664063-12.699219 28.355469-28.355469 28.355469h-336.542969c-15.667968 0-28.355468-12.691406-28.355468-28.355469v-215.4375c0-13.695313 8.800781-25.34375 21.074218-29.550781 3.1875-1.117188 6.613282-1.710938 10.1875-1.710938h330.730469c17.269531 0 31.261719 13.992188 31.261719 31.261719zm0 0" fill="#fcda42"/><path d="m482.0625 139.609375v159.746094c-2.324219.625-4.761719.949219-7.28125.949219h-336.535156c-15.664063 0-28.363282-12.699219-28.363282-28.355469v-161.890625c3.1875-1.117188 6.613282-1.710938 10.1875-1.710938h330.730469c17.269531 0 31.261719 13.992188 31.261719 31.261719zm0 0" fill="#f4a441"/><path d="m111.964844 246.699219v-215.4375c0-17.265625 13.996094-31.261719 31.261718-31.261719h330.738282c17.261718 0 31.261718 13.996094 31.261718 31.261719v215.4375c0 15.664062-12.699218 28.359375-28.359374 28.359375h-336.539063c-15.664063 0-28.363281-12.695313-28.363281-28.359375zm0 0" fill="#ededed"/><path d="m470.480469 256.128906h-323.769531c-8.617188 0-15.605469-6.984375-15.605469-15.605468v-205.847657h354.980469v205.847657c0 8.617187-6.988282 15.605468-15.605469 15.605468zm0 0" fill="#fff"/><path d="m486.085938 31.261719v51.144531h-354.980469v-51.144531c0-6.6875 5.433593-12.125 12.121093-12.125h330.738282c6.6875 0 12.121094 5.4375 12.121094 12.125zm0 0" fill="#583377"/><path d="m180.375 50.773438c0 9.160156-7.425781 16.585937-16.585938 16.585937-9.160156 0-16.585937-7.425781-16.585937-16.585937 0-9.160157 7.425781-16.585938 16.585937-16.585938 9.160157 0 16.585938 7.425781 16.585938 16.585938zm0 0" fill="#fff"/><path d="m222.613281 50.773438c0 9.160156-7.425781 16.585937-16.585937 16.585937s-16.585938-7.425781-16.585938-16.585937c0-9.160157 7.425782-16.585938 16.585938-16.585938s16.585937 7.425781 16.585937 16.585938zm0 0" fill="#fff"/><path d="m264.855469 50.773438c0 9.160156-7.425781 16.585937-16.585938 16.585937-9.160156 0-16.585937-7.425781-16.585937-16.585937 0-9.160157 7.425781-16.585938 16.585937-16.585938 9.160157 0 16.585938 7.425781 16.585938 16.585938zm0 0" fill="#fff"/><g fill="#d6d6d6"><path d="m234.449219 114.660156h-61.078125c-7.296875 0-13.210938 5.914063-13.210938 13.210938v128.257812h87.5v-128.257812c0-7.296875-5.914062-13.210938-13.210937-13.210938zm0 0"/><path d="m339.132812 114.660156h-61.074218c-7.296875 0-13.210938 5.914063-13.210938 13.210938v128.257812h87.496094v-128.257812c0-7.296875-5.914062-13.210938-13.210938-13.210938zm0 0"/><path d="m443.820312 114.660156h-61.078124c-7.292969 0-13.210938 5.914063-13.210938 13.210938v128.257812h87.5v-128.257812c0-7.296875-5.914062-13.210938-13.210938-13.210938zm0 0"/></g></svg>